<?xml version="1.0" encoding="UTF-8" standalone="no" ?>
<!DOCTYPE svg PUBLIC "-//W3C//DTD SVG 1.1//EN" "http://www.w3.org/Graphics/SVG/1.1/DTD/svg11.dtd">
<svg xmlns="http://www.w3.org/2000/svg" xmlns:xlink="http://www.w3.org/1999/xlink" version="1.1" width="1080" height="1080" viewBox="0 0 1080 1080" xml:space="preserve">
<desc>Created with Fabric.js 5.2.4</desc>
<defs>
</defs>
<rect x="0" y="0" width="100%" height="100%" fill="transparent"></rect>
<g transform="matrix(1 0 0 1 540 540)" id="1d3d11a5-9ffc-485e-9a22-3ce8b6a8b088"  >
</g>
<g transform="matrix(1 0 0 1 540 540)" id="7474c7dd-fade-4600-a7b1-4369aca07eca"  >
<rect style="stroke: none; stroke-width: 1; stroke-dasharray: none; stroke-linecap: butt; stroke-dashoffset: 0; stroke-linejoin: miter; stroke-miterlimit: 4; fill: rgb(255,255,255); fill-rule: nonzero; opacity: 1; visibility: hidden;" vector-effect="non-scaling-stroke"  x="-540" y="-540" rx="0" ry="0" width="1080" height="1080" />
</g>
<g transform="matrix(3.58 0 0 3.58 540 540)"  >
<path style="stroke: rgb(0,0,0); stroke-width: 0; stroke-dasharray: none; stroke-linecap: butt; stroke-dashoffset: 0; stroke-linejoin: miter; stroke-miterlimit: 4; fill: rgb(255,255,255); fill-rule: nonzero; opacity: 1;" vector-effect="non-scaling-stroke"  transform=" translate(-128, -143.66)" d="M 108.633615 254.43629 C 117.713862 254.43629 125.074857 261.797284 125.074857 270.877532 C 125.074857 279.957779 117.713862 287.318774 108.633615 287.318774 C 99.5533677 287.318774 92.1923728 279.957779 92.1923728 270.877532 C 92.1923728 261.797284 99.5533677 254.43629 108.633615 254.43629 Z M 199.849665 224.438339 L 216.09705 229.252379 L 203.199913 272.780219 C 202.072982 276.58361 198.458049 279.095992 194.500389 278.826397 L 190.516677 278.552973 L 190.419263 278.633409 L 149.02918 275.728903 L 150.180842 258.822508 L 177.989056 260.709686 L 159.783784 234.447622 L 173.709616 224.792379 L 191.938895 251.08702 L 199.849665 224.438339 Z M 23.0126771 194.347476 L 39.9158866 195.544979 L 37.935897 223.348728 L 64.1501315 205.120082 L 73.8271476 219.030793 L 47.578736 237.278394 L 74.3707554 245.173037 L 69.5818063 261.427835 L 25.8485266 248.543243 C 22.0304448 247.418369 19.5101155 243.787479 19.7913963 239.817092 L 23.0126771 194.347476 Z M 132.151306 170.671396 L 162.658679 207.503468 L 148.909247 218.891886 L 130.753266 196.972134 L 124.866941 230.673893 L 107.280249 227.599613 L 113.172232 193.845272 L 88.7296311 208.256891 L 79.6674587 192.874434 L 120.745504 168.674377 C 124.522104 166.449492 129.355297 167.295726 132.151306 170.671396 Z M 217.504528 145.960198 L 232.744017 137.668804 L 254.94482 178.473633 C 256.889641 182.048192 256.088221 186.494171 253.017682 189.164674 L 249.876622 191.878375 L 217.826246 219.77131 L 206.441034 206.680621 L 227.988588 187.934494 L 195.893546 182.152609 L 198.972402 165.078949 L 231.044844 170.857793 L 217.504528 145.960198 Z M 37.7821805 103.299272 L 49.2622123 116.306888 L 28.0106317 135.050179 L 60.1668233 140.664193 L 57.1863573 157.755303 L 24.9947229 152.136967 L 38.822104 177.134576 L 23.6411026 185.532577 L 1.08439616 144.756992 C -0.885025494 141.196884 -0.115545265 136.746375 2.93488097 134.054184 L 37.7821805 103.299272 Z M 146.476311 89.8796828 L 176.88045 126.612847 L 163.1271 137.996532 L 144.975445 116.067101 L 139.08912 149.778947 L 121.502428 146.704666 L 127.374238 113.081452 L 103.025237 127.354817 L 93.9976317 111.952048 L 131.398812 90.0233663 L 131.435631 89.880899 L 131.600545 89.9023265 L 135.085833 87.870141 C 138.861877 85.6569913 143.68556 86.5079996 146.476311 89.8796828 Z M 185.655786 71.8143168 L 192.305535 55.7902703 L 235.318239 73.6399229 C 239.072486 75.1978811 241.2415 79.1537636 240.536356 83.1568091 L 239.820231 87.1385839 L 232.47517 128.919545 L 215.389188 125.909819 L 220.312646 97.9413879 L 191.776157 113.7129 L 183.390302 98.5251862 L 211.981072 82.7408038 L 185.655786 71.8143168 Z M 103.71696 40.2373824 L 104.456513 57.5706533 L 76.0432671 58.785006 L 97.4730368 83.2749086 L 84.4165529 94.6993319 L 62.9507932 70.1728358 L 57.949673 98.1737132 L 40.8716575 95.1191088 L 49.0561498 49.3603563 C 49.771444 45.3612115 53.1664633 42.3942036 57.2253811 42.2210231 L 61.246149 42.0411642 L 61.3363168 41.9758 L 103.71696 40.2373824 Z M 161.838155 3.27194826 L 192.104824 40.2369789 L 178.291207 51.5474574 L 160.327329 29.6043227 L 154.268381 63.2715157 L 136.697231 60.1096121 L 142.766468 26.3665075 L 118.24002 40.7062765 L 109.232678 25.2916494 L 150.427675 1.21987397 C 154.218286 -0.995121237 159.056796 -0.124957814 161.838155 3.27194826 Z" stroke-linecap="round" />
</g>
</svg>